<svg width="36" height="35" viewBox="0 0 36 35" fill="none" xmlns="http://www.w3.org/2000/svg">
<path d="M12.5 5C12.5 4.30964 13.0596 3.75 13.75 3.75H16.25C16.9404 3.75 17.5 4.30964 17.5 5V5.71098C17.5 6.24573 17.8589 6.71031 18.3528 6.91536C18.8468 7.12048 19.4221 7.0423 19.8004 6.66403L20.3033 6.16114C20.7914 5.67298 21.5829 5.67298 22.071 6.16114L23.8388 7.9289C24.3269 8.41706 24.3269 9.20851 23.8388 9.69667L23.336 10.1995C22.9577 10.5778 22.8795 11.1531 23.0846 11.6472C23.2897 12.1411 23.7543 12.5 24.2891 12.5L25 12.5C25.6904 12.5 26.25 13.0596 26.25 13.75V16.25C26.25 16.9404 25.6904 17.5 25 17.5H24.289C23.7543 17.5 23.2897 17.8589 23.0846 18.3528C22.8795 18.8469 22.9577 19.4222 23.336 19.8004L23.8388 20.3033C24.327 20.7914 24.327 21.5829 23.8388 22.071L22.071 23.8388C21.5829 24.327 20.7914 24.327 20.3033 23.8388L19.8004 23.336C19.4221 22.9577 18.8469 22.8795 18.3528 23.0846C17.8589 23.2897 17.5 23.7543 17.5 24.289V25C17.5 25.6904 16.9404 26.25 16.25 26.25H13.75C13.0596 26.25 12.5 25.6904 12.5 25V24.2891C12.5 23.7543 12.1411 23.2897 11.6472 23.0846C11.1531 22.8795 10.5778 22.9577 10.1995 23.336L9.69665 23.8388C9.20849 24.327 8.41704 24.327 7.92888 23.8388L6.16111 22.071C5.67296 21.5829 5.67296 20.7914 6.16111 20.3033L6.66403 19.8004C7.0423 19.4221 7.12048 18.8468 6.91536 18.3528C6.71031 17.8589 6.24573 17.5 5.71098 17.5H5C4.30964 17.5 3.75 16.9404 3.75 16.25V13.75C3.75 13.0596 4.30964 12.5 5 12.5L5.71096 12.5C6.24572 12.5 6.71031 12.1411 6.91537 11.6472C7.1205 11.1531 7.04232 10.5779 6.66404 10.1996L6.16114 9.69667C5.67298 9.20852 5.67298 8.41706 6.16114 7.92891L7.9289 6.16114C8.41706 5.67298 9.20851 5.67298 9.69667 6.16114L10.1996 6.66404C10.5779 7.04232 11.1531 7.1205 11.6472 6.91537C12.1411 6.71031 12.5 6.24572 12.5 5.71095V5Z" stroke="#2565D0" stroke-width="1.5"/>
<path d="M17.5 15C17.5 16.3807 16.3807 17.5 15 17.5C13.6193 17.5 12.5 16.3807 12.5 15C12.5 13.6193 13.6193 12.5 15 12.5C16.3807 12.5 17.5 13.6193 17.5 15Z" stroke="#2565D0" stroke-width="1.5"/>
<path d="M22.1667 15.6667C22.1667 15.1604 22.5771 14.75 23.0833 14.75H24.9167C25.4229 14.75 25.8333 15.1604 25.8333 15.6667V16.1881C25.8333 16.5802 26.0965 16.9209 26.4587 17.0713C26.821 17.2217 27.2429 17.1644 27.5203 16.887L27.8891 16.5182C28.247 16.1602 28.8274 16.1602 29.1854 16.5182L30.4818 17.8145C30.8398 18.1725 30.8398 18.7529 30.4818 19.1109L30.113 19.4796C29.8356 19.757 29.7783 20.1789 29.9287 20.5413C30.0791 20.9035 30.4198 21.1667 30.812 21.1667L31.3333 21.1667C31.8396 21.1667 32.25 21.5771 32.25 22.0833V23.9167C32.25 24.4229 31.8396 24.8333 31.3333 24.8333H30.812C30.4198 24.8333 30.0791 25.0965 29.9287 25.4587C29.7783 25.821 29.8356 26.2429 30.113 26.5203L30.4818 26.8891C30.8398 27.247 30.8398 27.8275 30.4818 28.1854L29.1854 29.4818C28.8274 29.8398 28.247 29.8398 27.8891 29.4818L27.5203 29.113C27.2429 28.8356 26.821 28.7783 26.4587 28.9287C26.0965 29.0791 25.8333 29.4198 25.8333 29.812V30.3333C25.8333 30.8396 25.4229 31.25 24.9167 31.25H23.0833C22.5771 31.25 22.1667 30.8396 22.1667 30.3333V29.812C22.1667 29.4198 21.9035 29.0791 21.5413 28.9287C21.1789 28.7783 20.757 28.8356 20.4796 29.113L20.1109 29.4818C19.7529 29.8398 19.1725 29.8398 18.8145 29.4818L17.5182 28.1854C17.1602 27.8274 17.1602 27.247 17.5182 26.8891L17.887 26.5203C18.1644 26.2429 18.2217 25.821 18.0713 25.4587C17.9209 25.0965 17.5802 24.8333 17.1881 24.8333H16.6667C16.1604 24.8333 15.75 24.4229 15.75 23.9167V22.0833C15.75 21.5771 16.1604 21.1667 16.6667 21.1667L17.188 21.1667C17.5802 21.1667 17.9209 20.9035 18.0713 20.5413C18.2217 20.179 18.1644 19.7571 17.887 19.4797L17.5182 19.1109C17.1602 18.7529 17.1602 18.1725 17.5182 17.8145L18.8145 16.5182C19.1725 16.1602 19.7529 16.1602 20.1109 16.5182L20.4797 16.887C20.7571 17.1644 21.179 17.2217 21.5413 17.0713C21.9035 16.9209 22.1667 16.5802 22.1667 16.188V15.6667Z" fill="#DAE3FF"/>
<path d="M25.8333 23C25.8333 24.0125 25.0125 24.8333 24 24.8333C22.9875 24.8333 22.1667 24.0125 22.1667 23C22.1667 21.9875 22.9875 21.1667 24 21.1667C25.0125 21.1667 25.8333 21.9875 25.8333 23Z" fill="#DAE3FF"/>
<path d="M22.1667 15.6667C22.1667 15.1604 22.5771 14.75 23.0833 14.75H24.9167C25.4229 14.75 25.8333 15.1604 25.8333 15.6667V16.1881C25.8333 16.5802 26.0965 16.9209 26.4587 17.0713C26.821 17.2217 27.2429 17.1644 27.5203 16.887L27.8891 16.5182C28.247 16.1602 28.8274 16.1602 29.1854 16.5182L30.4818 17.8145C30.8398 18.1725 30.8398 18.7529 30.4818 19.1109L30.113 19.4796C29.8356 19.757 29.7783 20.1789 29.9287 20.5413C30.0791 20.9035 30.4198 21.1667 30.812 21.1667L31.3333 21.1667C31.8396 21.1667 32.25 21.5771 32.25 22.0833V23.9167C32.25 24.4229 31.8396 24.8333 31.3333 24.8333H30.812C30.4198 24.8333 30.0791 25.0965 29.9287 25.4587C29.7783 25.821 29.8356 26.2429 30.113 26.5203L30.4818 26.8891C30.8398 27.247 30.8398 27.8275 30.4818 28.1854L29.1854 29.4818C28.8274 29.8398 28.247 29.8398 27.8891 29.4818L27.5203 29.113C27.2429 28.8356 26.821 28.7783 26.4587 28.9287C26.0965 29.0791 25.8333 29.4198 25.8333 29.812V30.3333C25.8333 30.8396 25.4229 31.25 24.9167 31.25H23.0833C22.5771 31.25 22.1667 30.8396 22.1667 30.3333V29.812C22.1667 29.4198 21.9035 29.0791 21.5413 28.9287C21.1789 28.7783 20.757 28.8356 20.4796 29.113L20.1109 29.4818C19.7529 29.8398 19.1725 29.8398 18.8145 29.4818L17.5182 28.1854C17.1602 27.8274 17.1602 27.247 17.5182 26.8891L17.887 26.5203C18.1644 26.2429 18.2217 25.821 18.0713 25.4587C17.9209 25.0965 17.5802 24.8333 17.1881 24.8333H16.6667C16.1604 24.8333 15.75 24.4229 15.75 23.9167V22.0833C15.75 21.5771 16.1604 21.1667 16.6667 21.1667L17.188 21.1667C17.5802 21.1667 17.9209 20.9035 18.0713 20.5413C18.2217 20.179 18.1644 19.7571 17.887 19.4797L17.5182 19.1109C17.1602 18.7529 17.1602 18.1725 17.5182 17.8145L18.8145 16.5182C19.1725 16.1602 19.7529 16.1602 20.1109 16.5182L20.4797 16.887C20.7571 17.1644 21.179 17.2217 21.5413 17.0713C21.9035 16.9209 22.1667 16.5802 22.1667 16.188V15.6667Z" stroke="#2565D0"/>
<path d="M25.8333 23C25.8333 24.0125 25.0125 24.8333 24 24.8333C22.9875 24.8333 22.1667 24.0125 22.1667 23C22.1667 21.9875 22.9875 21.1667 24 21.1667C25.0125 21.1667 25.8333 21.9875 25.8333 23Z" stroke="#2565D0"/>
</svg>
