<svg width="28" height="28" viewBox="0 0 28 28" fill="none" xmlns="http://www.w3.org/2000/svg">
<path d="M10.8178 3.74155C11.7822 3.26606 12.861 3 13.9996 3C18.0998 3 21.4237 6.44985 21.4237 10.7055V11.4805C21.4237 12.4107 21.6889 13.32 22.186 14.0939L23.4042 15.9905C24.5169 17.7228 23.6675 20.0774 21.7322 20.6252C16.6696 22.0583 11.3296 22.0583 6.26701 20.6252C4.33176 20.0774 3.48232 17.7228 4.595 15.9905L5.81319 14.0939C6.3103 13.32 6.57557 12.4107 6.57557 11.4805V10.7055C6.57557 9.52364 6.83191 8.40396 7.29004 7.40305" stroke="#2565D0" stroke-width="1.5" stroke-linecap="round"/>
<path d="M9.0498 21.7C9.77033 23.6226 11.7145 25 13.9998 25C14.2687 25 14.5329 24.9809 14.791 24.9441M18.9498 21.7C18.656 22.4838 18.1589 23.1771 17.5181 23.7233" stroke="#2565D0" stroke-width="1.5" stroke-linecap="round"/>
</svg>
