<svg width="199" height="164" viewBox="0 0 199 164" fill="none" xmlns="http://www.w3.org/2000/svg">
<g clip-path="url(#clip0_1338_7937)">
<path d="M66.6172 157.808C66.6172 161.163 69.3298 163.891 72.6789 163.891H192.78C196.124 163.891 198.842 161.169 198.842 157.808V49.0156H66.6172V157.808Z" fill="#212B36"/>
<path d="M192.796 14.5542H72.6945C69.3455 14.5542 66.6328 17.2767 66.6328 20.6379V49.0592H198.852V20.6379C198.852 17.2767 196.139 14.5542 192.79 14.5542H192.796Z" fill="#212B36"/>
<path d="M57.1113 157.808C57.1113 161.163 59.824 163.891 63.173 163.891H183.274C186.623 163.891 189.336 161.169 189.336 157.808V49.0156H57.1113V157.808Z" fill="#D6DFE6"/>
<path d="M183.269 14.5166H63.173C59.824 14.5166 57.1113 17.2391 57.1113 20.6003V49.0216H189.33V20.6003C189.33 17.2391 186.618 14.5166 183.269 14.5166Z" fill="#2565D0"/>
<path d="M93.8358 39.5889C97.678 39.5889 100.793 36.4628 100.793 32.6067C100.793 28.7505 97.678 25.6245 93.8358 25.6245C89.9936 25.6245 86.8789 28.7505 86.8789 32.6067C86.8789 36.4628 89.9936 39.5889 93.8358 39.5889Z" fill="#212B36"/>
<path d="M92.3686 28.8661C90.3678 28.8661 88.7499 27.2423 88.7499 25.2342V10.0521C88.7499 8.29841 89.931 6.68006 91.6459 6.3499C93.9541 5.90065 95.9873 7.67055 95.9873 9.91134V14.5174H102.114V10.2577C102.114 5.05629 98.2092 0.504349 93.0373 0.157946C87.3639 -0.220932 82.6289 4.29854 82.6289 9.91676V24.9257C82.6289 30.0244 86.3878 34.5059 91.4518 34.9768C91.9911 35.0255 92.525 35.031 93.0481 34.9985C96.9041 34.7333 96.5859 28.8769 92.7191 28.8769H92.374L92.3686 28.8661Z" fill="#D6DFE6"/>
<path d="M149.312 39.5879C153.155 39.5879 156.269 36.4619 156.269 32.6057C156.269 28.7496 153.155 25.6235 149.312 25.6235C145.47 25.6235 142.355 28.7496 142.355 32.6057C142.355 36.4619 145.47 39.5879 149.312 39.5879Z" fill="#212B36"/>
<path d="M147.841 28.8661C145.84 28.8661 144.223 27.2423 144.223 25.2342V10.0521C144.223 8.29841 145.404 6.68006 147.119 6.3499C149.427 5.90065 151.46 7.67055 151.46 9.91134V14.5174H157.586V10.2577C157.586 5.05629 153.682 0.504349 148.51 0.157946C142.837 -0.220932 138.102 4.29854 138.102 9.91676V24.9257C138.102 30.0244 141.86 34.5059 146.924 34.9768C147.464 35.0255 147.998 35.031 148.521 34.9985C152.377 34.7333 152.059 28.8769 148.192 28.8769H147.847L147.841 28.8661Z" fill="#D6DFE6"/>
<path d="M96.7447 65.4761H76.9688V85.3239H96.7447V65.4761Z" fill="white"/>
<path d="M96.7447 94.6982H76.9688V114.546H96.7447V94.6982Z" fill="white"/>
<path d="M96.7447 123.92H76.9688V143.768H96.7447V123.92Z" fill="white"/>
<path d="M130.301 65.4761H110.525V85.3239H130.301V65.4761Z" fill="#2565D0"/>
<path d="M130.301 94.6978H110.525V114.546H130.301V94.6978Z" fill="white"/>
<path d="M130.301 123.92H110.525V143.768H130.301V123.92Z" fill="white"/>
<path d="M163.856 65.4761H144.08V85.3239H163.856V65.4761Z" fill="#2565D0"/>
<path d="M163.856 94.6982H144.08V114.546H163.856V94.6982Z" fill="#2565D0"/>
<path d="M163.856 123.921H144.08V143.769H163.856V123.921Z" fill="white"/>
<path d="M51.4335 68.9609H38.0859V77.7834H51.4335V68.9609Z" fill="#2565D0"/>
<path d="M57.0897 65.8647H32.4277V71.2448H57.0897V65.8647Z" fill="#212B36"/>
<path d="M76.0411 150.82C93.4057 133.392 93.4057 105.136 76.0411 87.7085C58.6765 70.2808 30.5229 70.2808 13.1582 87.7085C-4.20639 105.136 -4.20639 133.392 13.1582 150.82C30.5229 168.247 58.6765 168.247 76.0411 150.82Z" fill="#212B36"/>
<path d="M80.1786 127.587C84.7502 107.87 72.5307 88.1675 52.8855 83.5793C33.2404 78.9911 13.6089 91.255 9.03732 110.972C4.46575 130.688 16.6853 150.391 36.3304 154.979C55.9756 159.567 75.6071 147.303 80.1786 127.587Z" fill="#D6DFE6"/>
<path d="M23.9697 99.5199C23.7325 99.5199 23.5006 99.4279 23.3226 99.2493L21.7964 97.7175C21.4351 97.3603 21.4351 96.7757 21.7964 96.4131C22.1577 96.0505 22.7348 96.0505 23.0961 96.4131L24.6223 97.9448C24.9836 98.3021 24.9836 98.8866 24.6223 99.2493C24.4443 99.4279 24.207 99.5199 23.9751 99.5199H23.9697Z" fill="#D6DFE6"/>
<path d="M67.1182 142.826C66.8809 142.826 66.649 142.734 66.471 142.555L64.9448 141.023C64.5835 140.666 64.5835 140.081 64.9448 139.719C65.3062 139.356 65.8832 139.356 66.2445 139.719L67.7707 141.25C68.1321 141.608 68.1321 142.192 67.7707 142.555C67.5928 142.734 67.3555 142.826 67.1236 142.826H67.1182Z" fill="#D6DFE6"/>
<path d="M22.4435 142.826C22.2062 142.826 21.9744 142.734 21.7964 142.555C21.4351 142.198 21.4351 141.613 21.7964 141.25L23.3226 139.719C23.6839 139.356 24.261 139.356 24.6223 139.719C24.9836 140.076 24.9836 140.661 24.6223 141.023L23.0961 142.555C22.9181 142.734 22.6808 142.826 22.4489 142.826H22.4435Z" fill="#D6DFE6"/>
<path d="M65.592 99.5199C65.3547 99.5199 65.1228 99.4279 64.9448 99.2493C64.5835 98.892 64.5835 98.3075 64.9448 97.9448L66.471 96.4131C66.8324 96.0505 67.4094 96.0505 67.7707 96.4131C68.1321 96.7703 68.1321 97.3549 67.7707 97.7175L66.2445 99.2493C66.0666 99.4279 65.8293 99.5199 65.5974 99.5199H65.592Z" fill="#D6DFE6"/>
<path d="M44.7517 90.6866C45.9133 90.6866 46.8549 89.7415 46.8549 88.5757C46.8549 87.4099 45.9133 86.4648 44.7517 86.4648C43.5901 86.4648 42.6484 87.4099 42.6484 88.5757C42.6484 89.7415 43.5901 90.6866 44.7517 90.6866Z" fill="#212B36"/>
<path d="M44.7517 152.081C45.9133 152.081 46.8549 151.136 46.8549 149.97C46.8549 148.804 45.9133 147.859 44.7517 147.859C43.5901 147.859 42.6484 148.804 42.6484 149.97C42.6484 151.136 43.5901 152.081 44.7517 152.081Z" fill="#212B36"/>
<path d="M14.1658 117.165C15.3252 117.165 16.269 118.112 16.269 119.275C16.269 120.439 15.3252 121.386 14.1658 121.386C13.0063 121.386 12.0625 120.439 12.0625 119.275C12.0625 118.112 13.0063 117.165 14.1658 117.165Z" fill="#212B36"/>
<path d="M75.3396 117.165C76.4991 117.165 77.4428 118.112 77.4428 119.275C77.4428 120.439 76.4991 121.386 75.3396 121.386C74.1801 121.386 73.2363 120.439 73.2363 119.275C73.2363 118.112 74.1801 117.165 75.3396 117.165Z" fill="#212B36"/>
<path d="M57.8177 100.251L42.8091 117.906C42.3507 118.377 42.0756 119.032 42.135 119.747C42.2374 121.051 43.3753 122.031 44.675 121.928C45.6619 121.852 46.4547 121.175 46.7405 120.288L58.3408 100.629C58.5403 100.289 58.0765 99.9529 57.8177 100.256V100.251Z" fill="#2565D0"/>
</g>
<defs>
<clipPath id="clip0_1338_7937">
<rect width="199" height="164" fill="white"/>
</clipPath>
</defs>
</svg>
