<svg width="34" height="32" viewBox="0 0 34 32" fill="none" xmlns="http://www.w3.org/2000/svg">
<g id="coding (1) 1" clip-path="url(#clip0_1321_6414)">
<g id="Group">
<path id="Vector" d="M0.327148 0V7.55311H33.5608V0H0.327148ZM32.0502 6.04249H1.83777V1.51062H32.0502V6.04249Z" fill="#18B2A3"/>
<path id="Vector_2" d="M4.85925 3.02148H3.34863V4.53211H4.85925V3.02148Z" fill="#18B2A3"/>
<path id="Vector_3" d="M7.88074 3.02148H6.37012V4.53211H7.88074V3.02148Z" fill="#18B2A3"/>
<path id="Vector_4" d="M10.9012 3.02148H9.39062V4.53211H10.9012V3.02148Z" fill="#18B2A3"/>
<path id="Vector_5" d="M32.0502 30.2127H1.83777V9.06396H0.327148V31.7233H33.5608V9.06396H32.0502V30.2127Z" fill="#18B2A3"/>
<path id="Vector_6" d="M11.8777 10.7959L4.5459 18.1277L11.8777 25.4595L12.9457 24.3915L6.68192 18.1277L12.9457 11.8639L11.8777 10.7959Z" fill="#18B2A3"/>
<path id="Vector_7" d="M22.0094 25.4595L29.3412 18.1277L22.0094 10.7959L20.9414 11.8639L27.2052 18.1277L20.9414 24.3915L22.0094 25.4595Z" fill="#18B2A3"/>
<path id="Vector_8" d="M18.4832 10.3603L13.9521 25.4658L15.3989 25.8998L19.93 10.7943L18.4832 10.3603Z" fill="#18B2A3"/>
</g>
</g>
<defs>
<clipPath id="clip0_1321_6414">
<rect width="33.561" height="32" fill="white"/>
</clipPath>
</defs>
</svg>
