<svg width="60" height="60" viewBox="0 0 60 60" fill="none" xmlns="http://www.w3.org/2000/svg">
<g clip-path="url(#clip0_647_1544)">
<rect width="60" height="60" rx="8" fill="#2565D0"/>
<path d="M24.3348 35.1687H35.666C44.9957 35.1687 52.5535 42.7265 52.5535 52.0562V58.8687C52.5535 62.8062 49.3598 64 45.4223 64H14.5785C10.641 64 7.44727 62.8062 7.44727 58.8687V52.0562C7.44727 42.7265 15.0051 35.1687 24.3348 35.1687Z" fill="url(#paint0_linear_647_1544)"/>
<path d="M30.0008 32.0406C36.6394 32.0406 42.0211 26.6589 42.0211 20.0203C42.0211 13.3817 36.6394 8 30.0008 8C23.3621 8 17.9805 13.3817 17.9805 20.0203C17.9805 26.6589 23.3621 32.0406 30.0008 32.0406Z" fill="url(#paint1_linear_647_1544)"/>
</g>
<defs>
<linearGradient id="paint0_linear_647_1544" x1="-7.56128" y1="19.1563" x2="50.7476" y2="70.5396" gradientUnits="userSpaceOnUse">
<stop stop-color="#21D1F7"/>
<stop offset="1" stop-color="#2196F3"/>
</linearGradient>
<linearGradient id="paint1_linear_647_1544" x1="8.43192" y1="1.00886" x2="66.7408" y2="52.3921" gradientUnits="userSpaceOnUse">
<stop stop-color="#21D1F7"/>
<stop offset="1" stop-color="#2196F3"/>
</linearGradient>
<clipPath id="clip0_647_1544">
<rect width="60" height="60" fill="white"/>
</clipPath>
</defs>
</svg>
