<svg width="140" height="25" viewBox="0 0 140 25" fill="none" xmlns="http://www.w3.org/2000/svg">
<rect x="3.22754" y="7.58838" width="14.6886" height="4.04965" rx="2.02483" transform="rotate(-30 3.22754 7.58838)" fill="#2565D0"/>
<rect x="0.224121" y="16.6138" width="18.1205" height="4.04965" rx="2.02483" transform="rotate(-30 0.224121 16.6138)" fill="url(#paint0_linear_1336_2345)"/>
<rect x="3.02686" y="22.208" width="7.82475" height="4.04965" rx="2.02483" transform="rotate(-30 3.02686 22.208)" fill="#2565D0"/>
<path d="M78.3065 13.9664L79.8004 13.9664L83.8284 19.9308L86.2586 19.9308C86.1568 19.8119 85.9617 19.5698 85.6733 19.2044C85.3849 18.8306 85.0499 18.3888 84.6682 17.879C84.2865 17.3607 83.892 16.8297 83.4849 16.2859C83.0862 15.7337 82.713 15.2239 82.3652 14.7566C82.0853 14.3641 81.8459 14.0323 81.6468 13.7612C81.6741 13.7534 81.7015 13.7453 81.7291 13.737C82.2465 13.5841 82.7342 13.3462 83.1923 13.0233C83.6588 12.692 84.0405 12.2629 84.3374 11.7361C84.6342 11.2009 84.7827 10.5552 84.7827 9.79898C84.7827 8.42258 84.3204 7.42851 83.3958 6.81677C82.4713 6.19654 81.2626 5.88642 79.7697 5.88642C79.2383 5.88642 78.7506 5.89031 78.3065 5.89808L78.3065 7.44246C78.4329 7.43696 78.5644 7.43231 78.7009 7.42851C79.0148 7.42001 79.3413 7.41576 79.6806 7.41576C80.8512 7.41576 81.6909 7.63242 82.1998 8.06573C82.7173 8.49904 82.976 9.12777 82.976 9.95192C82.976 10.7421 82.6961 11.3623 82.1362 11.8126C81.5764 12.2544 80.7579 12.4753 79.6806 12.4753L78.3065 12.4753L78.3065 13.9664Z" fill="#2565D0"/>
<path d="M93.2869 19.9308C93.3548 19.5485 93.393 18.9963 93.4014 18.2741C93.4184 17.5519 93.4269 16.7192 93.4269 15.7761L93.4269 14.0939L90.895 9.76075C90.5302 9.13202 90.1655 8.52453 89.8007 7.93829C89.4445 7.34354 88.9992 6.68933 88.4648 5.97564L90.6532 5.97564L94.432 12.2969L98.0073 5.97564L100.196 5.97564C99.6359 6.78279 99.1905 7.45824 98.8597 8.00201C98.5289 8.54577 98.1812 9.13202 97.8164 9.76075L95.2336 14.1703L95.2336 15.7761C95.2336 16.7192 95.2378 17.5519 95.2463 18.2741C95.2633 18.9963 95.3099 19.5485 95.3863 19.9308L93.2869 19.9308Z" fill="#2565D0"/>
<path d="M102.745 18.7456L102.745 19.9308L112.86 19.9308L112.86 18.1721C112.479 18.2316 111.923 18.2783 111.194 18.3123C110.473 18.3463 109.646 18.3633 108.713 18.3633L104.985 18.3633L112.568 7.2246L112.568 5.97564L103.318 5.97564L103.318 7.74712C103.7 7.66216 104.187 7.61118 104.781 7.59419C105.375 7.5687 106.143 7.55595 107.084 7.55595L110.329 7.55595L102.745 18.7456Z" fill="#2565D0"/>
<path d="M116.593 19.9308C116.661 19.5485 116.7 18.9963 116.708 18.2741C116.725 17.5519 116.733 16.7192 116.733 15.7761L116.733 10.1431C116.733 9.19999 116.725 8.36735 116.708 7.64516C116.7 6.91448 116.661 6.35797 116.593 5.97564L124.698 5.97564L124.698 7.55595L118.54 7.55595L118.54 11.8636L123.986 11.8636L123.986 13.3929L118.54 13.3929L118.54 18.3633L121.059 18.3633C122.001 18.3633 122.794 18.3548 123.439 18.3378C124.092 18.3208 124.609 18.2783 124.991 18.2103L124.991 19.9308L116.593 19.9308Z" fill="#2565D0"/>
<path d="M130.683 8.92194L138.266 19.9308L139.844 19.9308L139.844 10.1431C139.844 9.19999 139.848 8.36735 139.857 7.64516C139.874 6.91448 139.916 6.35797 139.984 5.97564L138.266 5.97564L138.266 17.0279L130.683 5.97564L128.966 5.97564C129.033 6.35797 129.072 6.91448 129.08 7.64516C129.097 8.36735 129.106 9.19999 129.106 10.1431L129.106 15.7761C129.106 16.7192 129.097 17.5519 129.08 18.2741C129.072 18.9963 129.033 19.5485 128.966 19.9308L130.683 19.9308L130.683 8.92194Z" fill="#2565D0"/>
<path d="M29.1505 20.207C28.2344 20.207 27.3777 20.088 26.5804 19.8501C25.7915 19.6122 25.1554 19.3064 24.6719 18.9325L25.1045 16.9699C25.7322 17.5136 26.3853 17.913 27.0639 18.1679C27.7509 18.4228 28.4465 18.5502 29.1505 18.5502C29.9224 18.5502 30.6094 18.3378 31.2117 17.913C31.8139 17.4882 32.115 16.8892 32.115 16.116C32.115 15.7761 32.0344 15.4618 31.8733 15.1729C31.7206 14.8755 31.3983 14.5867 30.9063 14.3063C30.4143 14.0259 29.6721 13.737 28.6797 13.4397C27.6873 13.1423 26.9281 12.8067 26.4022 12.4328C25.8848 12.0505 25.5286 11.6299 25.3335 11.1711C25.1469 10.7038 25.0536 10.1983 25.0536 9.65455C25.0536 9.11078 25.2063 8.54153 25.5116 7.94679C25.817 7.35204 26.3005 6.84651 26.9621 6.43019C27.6237 6.00538 28.4804 5.79297 29.5322 5.79297C30.2701 5.79297 30.9275 5.86094 31.5043 5.99688C32.0896 6.13282 32.6918 6.34948 33.311 6.64685L32.9293 8.50754C32.2422 8.13371 31.64 7.86607 31.1226 7.70464C30.6137 7.54321 30.0538 7.4625 29.4431 7.4625C28.6797 7.4625 28.0563 7.6749 27.5728 8.09972C27.0978 8.51604 26.8603 8.98759 26.8603 9.51436C26.8603 9.86271 26.9324 10.1728 27.0766 10.4447C27.2293 10.7081 27.5304 10.9587 27.9799 11.1966C28.4295 11.4345 29.1081 11.6852 30.0157 11.9486C31.2795 12.3224 32.2465 12.8194 32.9166 13.4397C33.5867 14.0599 33.9217 14.8883 33.9217 15.9248C33.9217 16.7745 33.7054 17.5221 33.2728 18.1679C32.8402 18.8136 32.2634 19.3149 31.5425 19.6717C30.8215 20.0286 30.0241 20.207 29.1505 20.207Z" fill="#212B36"/>
<path fill-rule="evenodd" clip-rule="evenodd" d="M43.0621 20.207C42.0443 20.207 41.0858 19.9351 40.1867 19.3913C39.296 18.8391 38.575 18.0362 38.0237 16.9826C37.4724 15.9206 37.1967 14.6249 37.1967 13.0956C37.1967 11.5662 37.4851 10.2578 38.0619 9.17026C38.6471 8.08273 39.4021 7.25009 40.3266 6.67234C41.2512 6.08609 42.2266 5.79297 43.253 5.79297C44.2708 5.79297 45.2209 6.0691 46.103 6.62136C46.9936 7.16513 47.7104 7.96803 48.2532 9.03007C48.8046 10.0836 49.0803 11.3751 49.0803 12.9044C49.0803 14.4337 48.7876 15.7464 48.2023 16.8424C47.6256 17.93 46.8791 18.7626 45.963 19.3404C45.047 19.9181 44.08 20.207 43.0621 20.207ZM43.1639 18.5502C44.326 18.5502 45.2887 18.0744 46.0521 17.1228C46.824 16.1627 47.2099 14.8373 47.2099 13.1465C47.2099 11.3793 46.8367 9.99015 46.0903 8.97909C45.3523 7.96803 44.3769 7.4625 43.1639 7.4625C41.9594 7.4625 40.9713 7.95103 40.1994 8.92811C39.436 9.89669 39.0543 11.2094 39.0543 12.8662C39.0543 14.6079 39.4275 15.9928 40.1739 17.0209C40.9289 18.0404 41.9255 18.5502 43.1639 18.5502Z" fill="#212B36"/>
<path d="M53.1822 18.3208C53.1738 19.043 53.1356 19.5952 53.0677 19.9776L55.1671 19.9776C55.0907 19.6037 55.0441 19.0557 55.0271 18.3335C55.0186 17.6114 55.0144 16.7745 55.0144 15.8229L55.0144 13.5289L60.549 13.5289L60.549 11.9995L55.0144 11.9995L55.0144 7.60269L61.3633 7.60269L61.3633 6.02237L53.0677 6.02237C53.1356 6.4047 53.1738 6.96971 53.1822 7.71739C53.1992 8.45657 53.2077 9.29345 53.2077 10.228L53.2077 15.8229C53.2077 16.766 53.1992 17.5986 53.1822 18.3208Z" fill="#212B36"/>
<path d="M68.6207 19.9776C68.7055 19.5952 68.7564 19.043 68.7734 18.3208C68.7988 17.5986 68.8116 16.766 68.8116 15.8229L68.8116 7.60269L66.5723 7.60269C66.1481 7.60269 65.7452 7.61543 65.3635 7.64092C64.9903 7.65791 64.6129 7.70889 64.2312 7.79385L64.2312 6.02237L75.2623 6.02237L75.2623 7.79385C74.8806 7.70889 74.4989 7.65791 74.1172 7.64092C73.7439 7.61543 73.3453 7.60269 72.9212 7.60269L70.631 7.60269L70.631 15.8229C70.631 16.766 70.6395 17.5986 70.6564 18.3208C70.6819 19.043 70.737 19.5952 70.8218 19.9776L68.6207 19.9776Z" fill="#212B36"/>
<defs>
<linearGradient id="paint0_linear_1336_2345" x1="0.224121" y1="16.7504" x2="3.10836" y2="25.6187" gradientUnits="userSpaceOnUse">
<stop stop-color="#00C9D6"/>
<stop offset="1" stop-color="#2565D0"/>
</linearGradient>
</defs>
</svg>
