<svg width="32" height="32" viewBox="0 0 32 32" fill="none" xmlns="http://www.w3.org/2000/svg">
<g id="management 1" clip-path="url(#clip0_1108_6909)">
<g id="Group">
<g id="Group_2">
<path id="Vector" d="M18.3185 6.43604C20.1395 7.26354 21.4064 9.09841 21.4064 11.2287V13.3123H10.5928V11.2288C10.5928 9.09841 11.8598 7.2636 13.6807 6.4361" stroke="#2565D0" stroke-width="1.5" stroke-miterlimit="10" stroke-linecap="round" stroke-linejoin="round"/>
<path id="Vector_2" d="M15.9998 7.00938C17.6765 7.00938 19.0357 5.65014 19.0357 3.97344C19.0357 2.29674 17.6765 0.9375 15.9998 0.9375C14.3231 0.9375 12.9639 2.29674 12.9639 3.97344C12.9639 5.65014 14.3231 7.00938 15.9998 7.00938Z" stroke="#2565D0" stroke-width="1.5" stroke-miterlimit="10" stroke-linecap="round" stroke-linejoin="round"/>
<path id="Vector_3" d="M16.0283 7.41406V9.785" stroke="#2565D0" stroke-width="1.5" stroke-miterlimit="10" stroke-linecap="round" stroke-linejoin="round"/>
</g>
<path id="Vector_4" d="M19.7839 31.0625H12.2161C11.4064 31.0625 10.75 30.4061 10.75 29.5964V22.2786C10.75 21.4689 11.4064 20.8125 12.2161 20.8125H19.7838C20.5936 20.8125 21.25 21.4689 21.25 22.2786V29.5963C21.25 30.4061 20.5936 31.0625 19.7839 31.0625Z" stroke="#2565D0" stroke-width="1.5" stroke-miterlimit="10" stroke-linecap="round" stroke-linejoin="round"/>
<path id="Vector_5" d="M29.5964 31.0625H26.4662C25.6564 31.0625 25 30.4061 25 29.5964V22.2786C25 21.4689 25.6564 20.8125 26.4661 20.8125H29.5963C30.4061 20.8125 31.0625 21.4689 31.0625 22.2786V29.5963C31.0625 30.4061 30.4061 31.0625 29.5964 31.0625Z" stroke="#2565D0" stroke-width="1.5" stroke-miterlimit="10" stroke-linecap="round" stroke-linejoin="round"/>
<path id="Vector_6" d="M5.53387 31.0625H2.40363C1.59394 31.0625 0.9375 30.4061 0.9375 29.5964V22.2786C0.9375 21.4689 1.59394 20.8125 2.40363 20.8125H5.53381C6.34356 20.8125 7 21.4689 7 22.2786V29.5963C7 30.4061 6.34356 31.0625 5.53387 31.0625Z" stroke="#2565D0" stroke-width="1.5" stroke-miterlimit="10" stroke-linecap="round" stroke-linejoin="round"/>
<path id="Vector_7" d="M16 13.3125V20.8125" stroke="#2565D0" stroke-width="1.5" stroke-miterlimit="10" stroke-linecap="round" stroke-linejoin="round"/>
<path id="Vector_8" d="M28.0312 20.8125V19.2564C28.0312 18.0447 27.049 17.0625 25.8373 17.0625H6.19394C4.98225 17.0625 4 18.0447 4 19.2564V20.8125" stroke="#2565D0" stroke-width="1.5" stroke-miterlimit="10" stroke-linecap="round" stroke-linejoin="round"/>
</g>
</g>
<defs>
<clipPath id="clip0_1108_6909">
<rect width="32" height="32" fill="white"/>
</clipPath>
</defs>
</svg>
