<svg width="397" height="167" viewBox="0 0 397 167" fill="none" xmlns="http://www.w3.org/2000/svg">
<path d="M73.5735 164.759V131.86H0.641602V114.144L77.7147 2.56086H97.2706V111.844H120.968V131.86H97.2706V164.759H73.5735ZM73.5735 111.844V39.832L24.3387 111.844H73.5735Z" fill="#2565D0"/>
<path d="M196.801 166.83C177.935 166.83 163.517 159.698 153.548 145.434C143.731 131.016 138.823 110.387 138.823 83.5451C138.823 56.2436 143.731 35.6141 153.548 21.6566C163.517 7.54568 177.935 0.490234 196.801 0.490234C215.82 0.490234 230.237 7.54568 240.054 21.6566C249.87 35.6141 254.778 56.1669 254.778 83.3151C254.778 110.31 249.793 131.016 239.823 145.434C230.007 159.698 215.666 166.83 196.801 166.83ZM196.801 147.044C208.457 147.044 217.123 141.906 222.798 131.63C228.473 121.353 231.311 105.248 231.311 83.3151C231.311 61.3818 228.473 45.4304 222.798 35.4607C217.277 25.3377 208.611 20.2762 196.801 20.2762C185.144 20.2762 176.478 25.3377 170.803 35.4607C165.128 45.5838 162.29 61.5352 162.29 83.3151C162.29 105.248 165.128 121.353 170.803 131.63C176.478 141.906 185.144 147.044 196.801 147.044Z" fill="#2565D0"/>
<path d="M349.476 164.759V131.86H276.545V114.144L353.618 2.56086H373.174V111.844H396.871V131.86H373.174V164.759H349.476ZM349.476 111.844V39.832L300.242 111.844H349.476Z" fill="#2565D0"/>
</svg>
