<svg width="32" height="32" viewBox="0 0 32 32" fill="none" xmlns="http://www.w3.org/2000/svg">
<path d="M28.2994 16.9044C28.0117 16.5314 27.6994 16.1582 27.3657 15.7864C27.5951 15.5202 27.8137 15.2536 28.0194 14.9869C30.1454 12.2303 30.749 9.72962 29.719 7.94569C28.689 6.16169 26.2219 5.43412 22.7712 5.897C22.4075 5.94581 22.0362 6.00769 21.6589 6.08119C21.5305 5.70588 21.3946 5.34231 21.2507 4.99256C19.9264 1.77306 18.0625 0 16.0026 0C13.9427 0 12.0789 1.77306 10.7545 4.99256C10.6107 5.34231 10.4747 5.70588 10.3464 6.08119C9.9691 6.00775 9.59773 5.94581 9.23404 5.897C5.78379 5.43419 3.31629 6.16169 2.28629 7.94569C1.25629 9.72969 1.85992 12.2303 3.98592 14.9869C4.19154 15.2536 4.4101 15.5202 4.63954 15.7864C4.30579 16.1582 3.9936 16.5313 3.70585 16.9044C1.57985 19.6611 0.976229 22.1618 2.00623 23.9457C2.83379 25.3791 4.58879 26.1304 7.03648 26.1304C7.63517 26.1304 8.27579 26.0854 8.95392 25.9944C9.39067 25.9358 9.83829 25.8585 10.2943 25.7644C10.4377 26.1947 10.591 26.61 10.7545 27.0075C12.0789 30.2269 13.9427 32 16.0026 32C18.0625 32 19.9264 30.2269 21.2507 27.0074C21.4142 26.6099 21.5675 26.1946 21.7109 25.7644C22.1669 25.8584 22.6145 25.9357 23.0513 25.9943C23.7296 26.0853 24.3699 26.1303 24.9687 26.1303C27.4162 26.1303 29.1715 25.3789 29.999 23.9456C31.029 22.1617 30.4254 19.6611 28.2994 16.9044ZM24.6992 7.63287C26.4131 7.63287 27.6245 8.06794 28.0952 8.88313C28.711 9.94987 28.1422 11.7572 26.5346 13.8418C26.3814 14.0404 26.2201 14.2392 26.0521 14.4379C25.1122 13.5436 24.0541 12.6686 22.903 11.8348C22.744 10.4462 22.5049 9.11931 22.1923 7.88562C23.11 7.71625 23.9527 7.63287 24.6992 7.63287ZM18.4917 20.4995C17.6489 20.9861 16.817 21.4226 16.0032 21.8107C15.1888 21.4224 14.3568 20.9864 13.5135 20.4995C12.5832 19.9624 11.6929 19.3939 10.853 18.8034C10.7825 17.9065 10.7444 16.9707 10.7444 16C10.7444 14.9126 10.792 13.8688 10.8798 12.8749C11.6288 12.3606 12.4156 11.8641 13.2334 11.3919C14.1734 10.8492 15.0995 10.3696 16.0025 9.94913C16.9057 10.3696 17.8317 10.8492 18.7717 11.3919C19.5896 11.8641 20.3764 12.3606 21.1254 12.8749C21.2131 13.8688 21.2608 14.9126 21.2608 16C21.2608 16.9707 21.2227 17.9065 21.1522 18.8034C20.3123 19.3939 19.422 19.9624 18.4917 20.4995ZM20.8662 21.2502C20.7405 22.0484 20.5882 22.8044 20.4132 23.5129C19.7177 23.3108 18.9932 23.0663 18.2459 22.7782C18.6412 22.5683 19.036 22.3503 19.4292 22.1233C19.9188 21.8406 20.398 21.549 20.8662 21.2502ZM13.7592 22.7782C13.0118 23.0663 12.2874 23.3106 11.5919 23.5126C11.417 22.8042 11.2646 22.0483 11.139 21.2502C11.6072 21.549 12.0864 21.8406 12.576 22.1232C12.9691 22.3502 13.3639 22.5683 13.7592 22.7782ZM8.89223 17.309C8.29848 16.8171 7.74217 16.316 7.22885 15.8102C7.74904 15.3141 8.30954 14.8235 8.90579 14.3424C8.88186 14.8896 8.86935 15.4426 8.86935 16C8.86935 16.4393 8.87729 16.8758 8.89223 17.309ZM11.1909 10.4318C11.3169 9.68469 11.4667 8.97656 11.6364 8.31137C12.3025 8.49756 12.9968 8.72356 13.7131 8.98987C13.2395 9.23706 12.7665 9.49644 12.296 9.76812C11.9214 9.98438 11.553 10.2059 11.1909 10.4318ZM18.292 8.98981C19.0084 8.7235 19.7026 8.49744 20.3689 8.31131C20.5385 8.97656 20.6883 9.68469 20.8144 10.4318C20.4522 10.2059 20.0839 9.98438 19.7093 9.76812C19.2386 9.49637 18.7657 9.237 18.292 8.98981ZM23.0994 14.3424C23.6957 14.8235 24.2562 15.3141 24.7764 15.8102C24.263 16.316 23.7067 16.8171 23.113 17.309C23.1279 16.8758 23.1359 16.4393 23.1359 16C23.1359 15.4426 23.1234 14.8896 23.0994 14.3424ZM16.0026 1.875C17.3588 1.875 18.7994 3.60019 19.8292 6.51856C18.5885 6.86725 17.3024 7.32956 16.0026 7.89469C14.7029 7.32956 13.4167 6.86731 12.176 6.51856C13.2058 3.60019 14.6464 1.875 16.0026 1.875ZM3.91004 8.88319C4.38079 8.06787 5.5916 7.63294 7.30598 7.63294C8.05242 7.63294 8.89517 7.71631 9.81298 7.88575C9.50029 9.11944 9.26129 10.4463 9.10229 11.8348C7.95117 12.6687 6.8931 13.5437 5.95317 14.4379C5.78517 14.2393 5.62385 14.0405 5.47067 13.8419C3.86298 11.7573 3.29417 9.94994 3.91004 8.88319ZM7.02592 24.2584C5.31204 24.2583 4.10067 23.8234 3.62998 23.0082C3.0141 21.9414 3.58292 20.1341 5.19054 18.0495C5.4196 17.7524 5.66579 17.4551 5.9276 17.1582C6.85692 18.0718 7.91173 18.968 9.06498 19.8237C9.21679 21.2779 9.45517 22.6688 9.77385 23.9598C8.76204 24.1605 7.83735 24.2585 7.02592 24.2584ZM16.0026 30.125C14.6201 30.125 13.15 28.3319 12.1168 25.3099C13.3784 24.9432 14.6848 24.4602 16.0026 23.8732C17.3204 24.4602 18.6268 24.9432 19.8884 25.3099C18.8552 28.3319 17.3851 30.125 16.0026 30.125ZM28.3752 23.0082C27.6817 24.2094 25.381 24.5845 22.2313 23.9598C22.55 22.6688 22.7884 21.2779 22.9402 19.8237C24.0935 18.968 25.1483 18.0718 26.0775 17.1582C26.3394 17.4551 26.5855 17.7525 26.8146 18.0495C28.4224 20.1341 28.9912 21.9414 28.3752 23.0082Z" fill="#212B36"/>
<path d="M16.0023 18.8973C17.6022 18.8973 18.8992 17.6003 18.8992 16.0004C18.8992 14.4005 17.6022 13.1035 16.0023 13.1035C14.4024 13.1035 13.1055 14.4005 13.1055 16.0004C13.1055 17.6003 14.4024 18.8973 16.0023 18.8973Z" fill="#212B36"/>
</svg>
