<svg width="34" height="32" viewBox="0 0 34 32" fill="none" xmlns="http://www.w3.org/2000/svg">
<path d="M23.3555 22.3485C24.5994 22.2198 25.5431 21.1475 25.5002 19.8605C25.4574 18.5737 24.3849 17.5442 23.0981 17.5442H23.0124C21.6826 17.5871 20.6532 18.7024 20.6961 20.0321C20.739 20.6756 20.9963 21.2332 21.3824 21.6192C19.924 24.4933 17.6935 26.5951 14.3478 28.3538C12.0744 29.5549 9.71531 29.9839 7.3562 29.6837C5.42594 29.4263 3.92465 28.5684 2.98085 27.1527C1.60833 25.0509 1.47969 22.7774 2.63785 20.504C3.45288 18.8739 4.73955 17.6729 5.55458 17.0723C5.38302 16.5147 5.1256 15.571 4.99696 14.8848C-1.22268 19.3888 -0.579213 25.4799 1.30813 28.3538C2.72357 30.4987 5.5975 31.8284 8.77164 31.8284C9.62947 31.8284 10.4873 31.7426 11.3452 31.5282C16.8357 30.4558 20.9964 27.1957 23.3555 22.3485ZM30.9049 17.0295C27.6449 13.2118 22.8409 11.11 17.3504 11.11H16.6641C16.2781 10.3378 15.4631 9.82302 14.5623 9.82302H14.4765C13.1469 9.86594 12.1175 10.9812 12.1603 12.311C12.2032 13.5978 13.2755 14.6274 14.5623 14.6274H14.648C15.5917 14.5844 16.4067 13.9839 16.7499 13.1689H17.522C20.7819 13.1689 23.8702 14.1125 26.6585 15.9571C28.8031 17.3726 30.3473 19.2172 31.2051 21.4477C31.9343 23.2493 31.8914 25.008 31.1193 26.5094C29.9183 28.7828 27.9023 30.0268 25.2429 30.0268C23.5271 30.0268 21.8972 29.512 21.0392 29.1259C20.5675 29.5549 19.7095 30.2412 19.109 30.6703C20.9535 31.5281 22.8409 32 24.6423 32C28.7602 32 31.8057 29.7265 32.9638 27.4531C34.2077 24.9651 34.1218 20.6756 30.9049 17.0295ZM9.11477 23.0776C9.1577 24.3645 10.23 25.3939 11.5168 25.3939H11.6027C12.9324 25.3511 13.9618 24.2358 13.9188 22.906C13.876 21.6191 12.8036 20.5897 11.5168 20.5897H11.4311C11.3452 20.5897 11.2165 20.5897 11.1309 20.6325C9.37218 17.7156 8.643 14.5415 8.90042 11.1098C9.07185 8.53609 9.9298 6.30549 11.4311 4.46094C12.675 2.8738 15.077 2.1017 16.7071 2.05891C21.2537 1.97306 23.1838 7.63521 23.3126 9.90874C23.8702 10.0374 24.8139 10.3377 25.4574 10.5522C24.9425 3.60325 20.6532 0 16.5355 0C12.675 0 9.11477 2.78822 7.6992 6.90616C5.72614 12.3968 7.01294 17.6729 9.41498 21.8337C9.20062 22.1339 9.07185 22.6057 9.11477 23.0776Z" fill="#212B36"/>
</svg>
