<svg width="20" height="20" viewBox="0 0 20 20" fill="none" xmlns="http://www.w3.org/2000/svg">
<g id="suitcase 1" clip-path="url(#clip0_1461_6366)">
<path id="Vector" d="M17.9167 18.3337H2.08333C0.934167 18.3337 0 17.3987 0 16.2503V6.25033C0 5.10199 0.934167 4.16699 2.08333 4.16699H17.9167C19.0658 4.16699 20 5.10199 20 6.25033V16.2503C20 17.3987 19.0658 18.3337 17.9167 18.3337ZM2.08333 5.00033C1.39417 5.00033 0.833333 5.56116 0.833333 6.25033V16.2503C0.833333 16.9395 1.39417 17.5003 2.08333 17.5003H17.9167C18.6058 17.5003 19.1667 16.9395 19.1667 16.2503V6.25033C19.1667 5.56116 18.6058 5.00033 17.9167 5.00033H2.08333Z" fill="#2565D0"/>
<path id="Vector_2" d="M12.916 5.00033C12.686 5.00033 12.4993 4.81366 12.4993 4.58366V2.91699C12.4993 2.68699 12.3118 2.50033 12.0827 2.50033H7.91602C7.68685 2.50033 7.49935 2.68699 7.49935 2.91699V4.58366C7.49935 4.81366 7.31268 5.00033 7.08268 5.00033C6.85268 5.00033 6.66602 4.81366 6.66602 4.58366V2.91699C6.66602 2.22783 7.22685 1.66699 7.91602 1.66699H12.0827C12.7718 1.66699 13.3327 2.22783 13.3327 2.91699V4.58366C13.3327 4.81366 13.146 5.00033 12.916 5.00033Z" fill="#2565D0"/>
<path id="Vector_3" d="M10.0007 15.833C8.80815 15.833 7.61648 15.4797 6.43232 14.7738C6.06232 14.5538 5.83398 14.143 5.83398 13.7022V11.2497C5.83398 11.0197 6.02065 10.833 6.25065 10.833C6.48065 10.833 6.66732 11.0197 6.66732 11.2497V13.7022C6.66732 13.8488 6.74232 13.9888 6.85815 14.058C8.97315 15.3188 11.029 15.3188 13.1423 14.058C13.259 13.9888 13.334 13.8488 13.334 13.7022V11.2497C13.334 11.0197 13.5207 10.833 13.7507 10.833C13.9807 10.833 14.1673 11.0197 14.1673 11.2497V13.7022C14.1673 14.143 13.939 14.5538 13.569 14.7738C12.3848 15.4797 11.1932 15.833 10.0007 15.833Z" fill="#2565D0"/>
<path id="Vector_4" d="M9.99935 13.3338C9.94018 13.3338 9.88018 13.3213 9.82435 13.2954L4.40768 10.7954C4.26018 10.7271 4.16602 10.5796 4.16602 10.4171C4.16602 10.2546 4.26018 10.1071 4.40768 10.0388L9.82435 7.53875C9.93685 7.48708 10.0618 7.48708 10.1743 7.53875L15.591 10.0388C15.7385 10.1071 15.8327 10.2546 15.8327 10.4171C15.8327 10.5796 15.7385 10.7271 15.591 10.7954L10.1743 13.2954C10.1185 13.3213 10.0585 13.3338 9.99935 13.3338ZM5.57685 10.4171L9.99935 12.4579L14.4218 10.4171L9.99935 8.37625L5.57685 10.4171Z" fill="#2565D0"/>
</g>
<defs>
<clipPath id="clip0_1461_6366">
<rect width="20" height="20" fill="white"/>
</clipPath>
</defs>
</svg>
