<svg width="39" height="32" viewBox="0 0 39 32" fill="none" xmlns="http://www.w3.org/2000/svg">
<path fill-rule="evenodd" clip-rule="evenodd" d="M30.7987 16.4472C31.0935 15.9293 31.5619 15.5323 32.1211 15.3263V15.3238C31.9541 12.0955 30.5541 9.05453 28.21 6.82856C25.8659 4.60259 22.7567 3.36152 19.5241 3.36152C16.2915 3.36152 13.1822 4.60259 10.8382 6.82856C8.49406 9.05453 7.09403 12.0955 6.92703 15.3238C7.48626 15.5297 7.95467 15.9268 8.24949 16.4447C8.5443 16.9626 8.64654 17.568 8.53813 18.154C8.42972 18.74 8.11764 19.2688 7.65705 19.647C7.19646 20.0251 6.61702 20.2283 6.02113 20.2206C5.42524 20.2128 4.85127 19.9947 4.40067 19.6047C3.95006 19.2147 3.65184 18.6779 3.5587 18.0893C3.46556 17.5007 3.5835 16.8981 3.89168 16.388C4.19986 15.8779 4.67844 15.4932 5.24282 15.3019C5.36358 12.8291 6.12335 10.4299 7.44798 8.33843C8.77261 6.24691 10.6169 4.53454 12.8007 3.36843H5.89545C5.69681 3.93029 5.30592 4.40384 4.79189 4.70538C4.27786 5.00692 3.67378 5.11703 3.08642 5.01625C2.49905 4.91548 1.96622 4.6103 1.5821 4.15467C1.19798 3.69903 0.987305 3.12227 0.987305 2.52632C0.987305 1.93037 1.19798 1.35361 1.5821 0.897975C1.96622 0.442338 2.49905 0.137164 3.08642 0.0363879C3.67378 -0.0643879 4.27786 0.0457237 4.79189 0.347262C5.30592 0.648801 5.69681 1.12235 5.89545 1.68421H33.1519C33.3505 1.12235 33.7414 0.648801 34.2554 0.347262C34.7695 0.0457237 35.3736 -0.0643879 35.9609 0.0363879C36.5483 0.137164 37.0811 0.442338 37.4652 0.897975C37.8493 1.35361 38.06 1.93037 38.06 2.52632C38.06 3.12227 37.8493 3.69903 37.4652 4.15467C37.0811 4.6103 36.5483 4.91548 35.9609 5.01625C35.3736 5.11703 34.7695 5.00692 34.2554 4.70538C33.7414 4.40384 33.3505 3.93029 33.1519 3.36843H26.2466C28.431 4.53465 30.2756 6.24737 31.6004 8.33937C32.9252 10.4314 33.6849 12.8312 33.8054 15.3044C34.3697 15.4958 34.8483 15.8805 35.1565 16.3905C35.4647 16.9006 35.5826 17.5032 35.4895 18.0918C35.3963 18.6804 35.0981 19.2172 34.6475 19.6072C34.1969 19.9972 33.6229 20.2153 33.027 20.2231C32.4312 20.2308 31.8517 20.0277 31.3911 19.6495C30.9305 19.2714 30.6185 18.7425 30.51 18.1566C30.4016 17.5706 30.5039 16.9651 30.7987 16.4472ZM32.5299 18.3844C32.6684 18.4769 32.8312 18.5263 32.9978 18.5263C33.2211 18.5263 33.4353 18.4376 33.5932 18.2797C33.7512 18.1217 33.8399 17.9076 33.8399 17.6842C33.8399 17.5177 33.7905 17.3549 33.698 17.2164C33.6054 17.0779 33.4739 16.9699 33.32 16.9062C33.1662 16.8425 32.9968 16.8258 32.8335 16.8583C32.6701 16.8908 32.5201 16.971 32.4023 17.0888C32.2845 17.2065 32.2043 17.3566 32.1718 17.5199C32.1394 17.6833 32.156 17.8526 32.2198 18.0065C32.2835 18.1603 32.3914 18.2919 32.5299 18.3844ZM35.9919 1.82613C35.8535 1.7336 35.6906 1.68421 35.5241 1.68421C35.3007 1.68421 35.0866 1.77294 34.9286 1.93086C34.7707 2.08879 34.682 2.30298 34.682 2.52632C34.682 2.69287 34.7314 2.85569 34.8239 2.99417C34.9164 3.13265 35.048 3.24059 35.2018 3.30432C35.3557 3.36806 35.525 3.38474 35.6884 3.35224C35.8517 3.31975 36.0018 3.23955 36.1195 3.12178C36.2373 3.00401 36.3175 2.85396 36.35 2.69061C36.3825 2.52726 36.3658 2.35794 36.3021 2.20406C36.2384 2.05019 36.1304 1.91867 35.9919 1.82613ZM3.05624 3.22651C3.19472 3.31904 3.35753 3.36843 3.52409 3.36843C3.74743 3.36843 3.96162 3.2797 4.11954 3.12178C4.27747 2.96385 4.36619 2.74966 4.36619 2.52632C4.36619 2.35977 4.3168 2.19695 4.22427 2.05847C4.13174 1.91999 4.00022 1.81205 3.84635 1.74832C3.69247 1.68458 3.52315 1.6679 3.3598 1.7004C3.19645 1.73289 3.0464 1.81309 2.92863 1.93086C2.81086 2.04863 2.73065 2.19868 2.69816 2.36203C2.66567 2.52539 2.68234 2.6947 2.74608 2.84858C2.80982 3.00245 2.91775 3.13397 3.05624 3.22651ZM5.58255 18.3844C5.72104 18.4769 5.88385 18.5263 6.0504 18.5263C6.27374 18.5263 6.48794 18.4376 6.64586 18.2797C6.80379 18.1217 6.89251 17.9076 6.89251 17.6842C6.89251 17.5177 6.84312 17.3549 6.75059 17.2164C6.65806 17.0779 6.52654 16.9699 6.37266 16.9062C6.21879 16.8425 6.04947 16.8258 5.88612 16.8583C5.72276 16.8908 5.57271 16.971 5.45494 17.0888C5.33717 17.2065 5.25697 17.3566 5.22448 17.5199C5.19198 17.6833 5.20866 17.8526 5.2724 18.0065C5.33613 18.1603 5.44407 18.2919 5.58255 18.3844Z" fill="#18B2A3"/>
<path fill-rule="evenodd" clip-rule="evenodd" d="M15.3138 31.9999V26.9472H23.7348V31.9999H25.4191V24.4209C25.4166 23.8686 25.2332 23.3323 24.8969 22.8941C24.5607 22.4559 24.0901 22.1401 23.5572 21.9948L26.1197 18.1514C26.198 18.0339 26.2456 17.8986 26.2579 17.7579C26.2703 17.6173 26.2471 17.4757 26.1904 17.3464L20.2957 3.87269C20.23 3.72277 20.1221 3.59523 19.9851 3.50567C19.8481 3.41612 19.688 3.36842 19.5243 3.36842C19.3607 3.36842 19.2005 3.41612 19.0635 3.50567C18.9265 3.59523 18.8186 3.72277 18.753 3.87269L12.8582 17.3464C12.8016 17.4757 12.7783 17.6173 12.7907 17.7579C12.8031 17.8986 12.8506 18.0339 12.929 18.1514L15.4915 21.9948C14.9586 22.1401 14.488 22.4559 14.1517 22.8941C13.8155 23.3323 13.6321 23.8686 13.6296 24.4209V31.9999H15.3138ZM19.5243 15.9999C19.6909 15.9999 19.8537 16.0492 19.9922 16.1418C20.1307 16.2343 20.2386 16.3658 20.3023 16.5197C20.3661 16.6736 20.3827 16.8429 20.3502 17.0062C20.3178 17.1696 20.2376 17.3196 20.1198 17.4374C20.002 17.5552 19.852 17.6354 19.6886 17.6679C19.5253 17.7004 19.3559 17.6837 19.2021 17.62C19.0482 17.5562 18.9167 17.4483 18.8241 17.3098C18.7316 17.1713 18.6822 17.0085 18.6822 16.842C18.6822 16.6186 18.7709 16.4044 18.9289 16.2465C19.0868 16.0886 19.301 15.9999 19.5243 15.9999ZM18.6822 14.4706C18.1204 14.6692 17.6468 15.0601 17.3453 15.5742C17.0437 16.0882 16.9336 16.6923 17.0344 17.2796C17.1352 17.867 17.4403 18.3998 17.896 18.7839C18.3516 19.1681 18.9284 19.3787 19.5243 19.3787C20.1203 19.3787 20.697 19.1681 21.1527 18.7839C21.6083 18.3998 21.9135 17.867 22.0143 17.2796C22.115 16.6923 22.0049 16.0882 21.7034 15.5742C21.4018 15.0601 20.9283 14.6692 20.3664 14.4706V8.23901L24.4633 17.5999L21.6001 21.8946H17.4485L14.5854 17.5999L18.6822 8.23648V14.4706ZM22.8927 23.5788C23.1161 23.5788 23.3303 23.6675 23.4882 23.8254C23.6461 23.9834 23.7348 24.1976 23.7348 24.4209V25.263H15.3138V24.4209C15.3138 24.1976 15.4025 23.9834 15.5604 23.8254C15.7184 23.6675 15.9326 23.5788 16.1559 23.5788H22.8927Z" fill="#18B2A3"/>
</svg>
